REM DIRINDEX 1\2\4\18,1\2\4\19,1\2\5\20,1\2\5\21,1\2\6\22,1\2\6\23,1\2\7\24,1\2\7\25,1\2\8\26,1\2\8\27,1\2\9\28,1\2\9\29,1\2\10\30,1\3\11\31,1\3\11\32,1\3\11\33,1\3\11\34,1\3\11\35,1\3\12\36,1\3\12\37,1\3\12\38,1\3\12\39,1\3\12\40,1\3\13\41,1\3\13\42,1\3\13\43,1\3\13\44,1\3\13\45,1\3\14\46,1\3\14\47,1\3\14\48,1\3\14\49,1\3\15\50,1\3\15\51,1\3\15\52,1\3\15\53,1\3\15\54,1\3\16\55,1\3\16\56,1\3\16\57,1\3\16\58,1\3\16\59,1\3\17\60,1\3\17\61
REM DIRNAME "folder01","folder02","folder03","folder04","folder05","folder06","folder07","folder08","folder09","folder10","folder11","folder12","folder13","folder14","folder15","folder16","folder17","folder18","folder19","folder20","folder21","folder22","folder23","folder24","folder25","folder26","folder27","folder28","folder29","folder30","folder31","folder32","folder33","folder34","folder35","folder36","folder37","folder38","folder39","folder40","folder41","folder42","folder43","folder44","folder45","folder46","folder47","folder48","folder49","folder50","folder51","folder52","folder53","folder54","folder55","folder56","folder57","folder58","folder59","folder60","folder61"
TITLE ""
FILE "TOEIC LR Kinnojyukugo_05.mp3" MP3
  TRACK 01 AUDIO
    TITLE "0:"
    INDEX 01 00:00:00
  TRACK 02 AUDIO
    TITLE "22:cjc160_0601"
    INDEX 01 00:00:12
  TRACK 03 AUDIO
    TITLE "0:"
    INDEX 01 00:01:53
  TRACK 04 AUDIO
    TITLE "23:cjc160_0602"
    INDEX 01 00:02:17
  TRACK 05 AUDIO
    TITLE "0:"
    INDEX 01 00:04:24
  TRACK 06 AUDIO
    TITLE "22:cjc160_0603"
    INDEX 01 00:05:25
  TRACK 07 AUDIO
    TITLE "0:"
    INDEX 01 00:07:04
  TRACK 08 AUDIO
    TITLE "23:cjc160_0604"
    INDEX 01 00:07:42
  TRACK 09 AUDIO
    TITLE "0:"
    INDEX 01 00:10:05
  TRACK 10 AUDIO
    TITLE "22:cjc160_0605"
    INDEX 01 00:11:06
  TRACK 11 AUDIO
    TITLE "0:"
    INDEX 01 00:12:47
  TRACK 12 AUDIO
    TITLE "23:cjc160_0606"
    INDEX 01 00:13:11
  TRACK 13 AUDIO
    TITLE "0:"
    INDEX 01 00:15:41
  TRACK 14 AUDIO
    TITLE "22:cjc160_0607"
    INDEX 01 00:16:43
  TRACK 15 AUDIO
    TITLE "0:"
    INDEX 01 00:17:73
  TRACK 16 AUDIO
    TITLE "23:cjc160_0608"
    INDEX 01 00:18:38
  TRACK 17 AUDIO
    TITLE "0:"
    INDEX 01 00:20:27
  TRACK 18 AUDIO
    TITLE "22:cjc160_0609"
    INDEX 01 00:21:28
  TRACK 19 AUDIO
    TITLE "0:"
    INDEX 01 00:22:47
  TRACK 20 AUDIO
    TITLE "23:cjc160_0610"
    INDEX 01 00:23:13
  TRACK 21 AUDIO
    TITLE "0:"
    INDEX 01 00:25:08
  TRACK 22 AUDIO
    TITLE "22:cjc160_0611"
    INDEX 01 00:26:14
  TRACK 23 AUDIO
    TITLE "0:"
    INDEX 01 00:28:14
  TRACK 24 AUDIO
    TITLE "23:cjc160_0612"
    INDEX 01 00:28:54
  TRACK 25 AUDIO
    TITLE "0:"
    INDEX 01 00:31:32
  TRACK 26 AUDIO
    TITLE "22:cjc160_0613"
    INDEX 01 00:32:32
  TRACK 27 AUDIO
    TITLE "0:"
    INDEX 01 00:33:51
  TRACK 28 AUDIO
    TITLE "23:cjc160_0614"
    INDEX 01 00:34:15
  TRACK 29 AUDIO
    TITLE "0:"
    INDEX 01 00:35:71
  TRACK 30 AUDIO
    TITLE "22:cjc160_0615"
    INDEX 01 00:36:73
  TRACK 31 AUDIO
    TITLE "0:"
    INDEX 01 00:38:13
  TRACK 32 AUDIO
    TITLE "23:cjc160_0616"
    INDEX 01 00:38:50
  TRACK 33 AUDIO
    TITLE "0:"
    INDEX 01 00:41:17
  TRACK 34 AUDIO
    TITLE "22:cjc160_0617"
    INDEX 01 00:42:19
  TRACK 35 AUDIO
    TITLE "0:"
    INDEX 01 00:43:49
  TRACK 36 AUDIO
    TITLE "23:cjc160_0618"
    INDEX 01 00:44:10
  TRACK 37 AUDIO
    TITLE "0:"
    INDEX 01 00:46:54
  TRACK 38 AUDIO
    TITLE "22:cjc160_0619"
    INDEX 01 00:47:53
  TRACK 39 AUDIO
    TITLE "0:"
    INDEX 01 00:48:64
  TRACK 40 AUDIO
    TITLE "23:cjc160_0620"
    INDEX 01 00:49:28
  TRACK 41 AUDIO
    TITLE "0:"
    INDEX 01 00:51:51
  TRACK 42 AUDIO
    TITLE "22:cjc160_0621"
    INDEX 01 00:52:60
  TRACK 43 AUDIO
    TITLE "0:"
    INDEX 01 00:54:67
  TRACK 44 AUDIO
    TITLE "23:cjc160_0622"
    INDEX 01 00:55:29
  TRACK 45 AUDIO
    TITLE "0:"
    INDEX 01 00:58:02
  TRACK 46 AUDIO
    TITLE "22:cjc160_0623"
    INDEX 01 00:59:03
  TRACK 47 AUDIO
    TITLE "0:"
    INDEX 01 01:00:32
  TRACK 48 AUDIO
    TITLE "23:cjc160_0624"
    INDEX 01 01:00:69
  TRACK 49 AUDIO
    TITLE "0:"
    INDEX 01 01:02:70
  TRACK 50 AUDIO
    TITLE "22:cjc160_0625"
    INDEX 01 01:03:70
  TRACK 51 AUDIO
    TITLE "0:"
    INDEX 01 01:06:11
  TRACK 52 AUDIO
    TITLE "23:cjc160_0626"
    INDEX 01 01:06:46
  TRACK 53 AUDIO
    TITLE "0:"
    INDEX 01 01:08:63
  TRACK 54 AUDIO
    TITLE "22:cjc160_0627"
    INDEX 01 01:09:74
  TRACK 55 AUDIO
    TITLE "0:"
    INDEX 01 01:12:24
  TRACK 56 AUDIO
    TITLE "23:cjc160_0628"
    INDEX 01 01:12:65
  TRACK 57 AUDIO
    TITLE "0:"
    INDEX 01 01:17:05
  TRACK 58 AUDIO
    TITLE "22:cjc160_0629"
    INDEX 01 01:18:06
  TRACK 59 AUDIO
    TITLE "0:"
    INDEX 01 01:19:24
  TRACK 60 AUDIO
    TITLE "23:cjc160_0630"
    INDEX 01 01:19:61
  TRACK 61 AUDIO
    TITLE "0:"
    INDEX 01 01:21:46
  TRACK 62 AUDIO
    TITLE "22:cjc160_0631"
    INDEX 01 01:22:45
  TRACK 63 AUDIO
    TITLE "0:"
    INDEX 01 01:24:09
  TRACK 64 AUDIO
    TITLE "23:cjc160_0632"
    INDEX 01 01:24:48
  TRACK 65 AUDIO
    TITLE "0:"
    INDEX 01 01:26:59
  TRACK 66 AUDIO
    TITLE "22:cjc160_0633"
    INDEX 01 01:27:58
  TRACK 67 AUDIO
    TITLE "0:"
    INDEX 01 01:29:18
  TRACK 68 AUDIO
    TITLE "23:cjc160_0634"
    INDEX 01 01:29:55
  TRACK 69 AUDIO
    TITLE "0:"
    INDEX 01 01:32:09
  TRACK 70 AUDIO
    TITLE "22:cjc160_0635"
    INDEX 01 01:33:10
  TRACK 71 AUDIO
    TITLE "0:"
    INDEX 01 01:35:21
  TRACK 72 AUDIO
    TITLE "23:cjc160_0636"
    INDEX 01 01:35:60
  TRACK 73 AUDIO
    TITLE "0:"
    INDEX 01 01:38:23
  TRACK 74 AUDIO
    TITLE "22:cjc160_0637"
    INDEX 01 01:39:22
  TRACK 75 AUDIO
    TITLE "0:"
    INDEX 01 01:40:57
  TRACK 76 AUDIO
    TITLE "23:cjc160_0638"
    INDEX 01 01:41:23
  TRACK 77 AUDIO
    TITLE "0:"
    INDEX 01 01:43:65
  TRACK 78 AUDIO
    TITLE "22:cjc160_0639"
    INDEX 01 01:44:65
  TRACK 79 AUDIO
    TITLE "0:"
    INDEX 01 01:46:22
  TRACK 80 AUDIO
    TITLE "23:cjc160_0640"
    INDEX 01 01:46:60
  TRACK 81 AUDIO
    TITLE "0:"
    INDEX 01 01:48:45
  TRACK 82 AUDIO
    TITLE "22:cjc160_0641"
    INDEX 01 01:49:46
  TRACK 83 AUDIO
    TITLE "0:"
    INDEX 01 01:51:59
  TRACK 84 AUDIO
    TITLE "23:cjc160_0642"
    INDEX 01 01:52:23
  TRACK 85 AUDIO
    TITLE "0:"
    INDEX 01 01:55:33
  TRACK 86 AUDIO
    TITLE "22:cjc160_0643"
    INDEX 01 01:56:37
  TRACK 87 AUDIO
    TITLE "0:"
    INDEX 01 01:57:61
  TRACK 88 AUDIO
    TITLE "23:cjc160_0644"
    INDEX 01 01:58:22
  TRACK 89 AUDIO
    TITLE "0:"
    INDEX 01 02:00:50
  TRACK 90 AUDIO
    TITLE "22:cjc160_0645"
    INDEX 01 02:01:51
  TRACK 91 AUDIO
    TITLE "0:"
    INDEX 01 02:02:72
  TRACK 92 AUDIO
    TITLE "23:cjc160_0646"
    INDEX 01 02:03:37
  TRACK 93 AUDIO
    TITLE "0:"
    INDEX 01 02:05:53
  TRACK 94 AUDIO
    TITLE "22:cjc160_0647"
    INDEX 01 02:06:54
  TRACK 95 AUDIO
    TITLE "0:"
    INDEX 01 02:08:01
  TRACK 96 AUDIO
    TITLE "23:cjc160_0648"
    INDEX 01 02:08:38
  TRACK 97 AUDIO
    TITLE "0:"
    INDEX 01 02:10:74
  TRACK 98 AUDIO
    TITLE "22:cjc160_0649"
    INDEX 01 02:11:73
  TRACK 99 AUDIO
    TITLE "0:"
    INDEX 01 02:14:23
  TRACK 100 AUDIO
    TITLE "23:cjc160_0650"
    INDEX 01 02:14:60
  TRACK 101 AUDIO
    TITLE "0:"
    INDEX 01 02:17:64
  TRACK 102 AUDIO
    TITLE "22:cjc160_0651"
    INDEX 01 02:18:67
  TRACK 103 AUDIO
    TITLE "0:"
    INDEX 01 02:20:13
  TRACK 104 AUDIO
    TITLE "23:cjc160_0652"
    INDEX 01 02:20:51
  TRACK 105 AUDIO
    TITLE "0:"
    INDEX 01 02:23:28
  TRACK 106 AUDIO
    TITLE "22:cjc160_0653"
    INDEX 01 02:24:27
  TRACK 107 AUDIO
    TITLE "0:"
    INDEX 01 02:25:38
  TRACK 108 AUDIO
    TITLE "23:cjc160_0654"
    INDEX 01 02:25:75
  TRACK 109 AUDIO
    TITLE "0:"
    INDEX 01 02:28:09
  TRACK 110 AUDIO
    TITLE "22:cjc160_0655"
    INDEX 01 02:29:09
  TRACK 111 AUDIO
    TITLE "0:"
    INDEX 01 02:30:35
  TRACK 112 AUDIO
    TITLE "23:cjc160_0656"
    INDEX 01 02:30:73
  TRACK 113 AUDIO
    TITLE "0:"
    INDEX 01 02:33:08
  TRACK 114 AUDIO
    TITLE "22:cjc160_0657"
    INDEX 01 02:34:08
  TRACK 115 AUDIO
    TITLE "0:"
    INDEX 01 02:35:29
  TRACK 116 AUDIO
    TITLE "23:cjc160_0658"
    INDEX 01 02:35:66
  TRACK 117 AUDIO
    TITLE "0:"
    INDEX 01 02:37:63
  TRACK 118 AUDIO
    TITLE "22:cjc160_0659"
    INDEX 01 02:38:62
  TRACK 119 AUDIO
    TITLE "0:"
    INDEX 01 02:40:01
  TRACK 120 AUDIO
    TITLE "23:cjc160_0660"
    INDEX 01 02:40:38
  TRACK 121 AUDIO
    TITLE "0:"
    INDEX 01 02:42:74
  TRACK 122 AUDIO
    TITLE "22:cjc160_0661"
    INDEX 01 02:43:75
  TRACK 123 AUDIO
    TITLE "0:"
    INDEX 01 02:45:15
  TRACK 124 AUDIO
    TITLE "23:cjc160_0662"
    INDEX 01 02:45:53
  TRACK 125 AUDIO
    TITLE "0:"
    INDEX 01 02:48:06
  TRACK 126 AUDIO
    TITLE "22:cjc160_0663"
    INDEX 01 02:49:07
  TRACK 127 AUDIO
    TITLE "0:"
    INDEX 01 02:50:22
  TRACK 128 AUDIO
    TITLE "23:cjc160_0664"
    INDEX 01 02:50:60
  TRACK 129 AUDIO
    TITLE "0:"
    INDEX 01 02:53:27
  TRACK 130 AUDIO
    TITLE "22:cjc160_0665"
    INDEX 01 02:54:28
  TRACK 131 AUDIO
    TITLE "0:"
    INDEX 01 02:55:41
  TRACK 132 AUDIO
    TITLE "23:cjc160_0666"
    INDEX 01 02:56:05
  TRACK 133 AUDIO
    TITLE "0:"
    INDEX 01 02:58:16
  TRACK 134 AUDIO
    TITLE "22:cjc160_0667"
    INDEX 01 02:59:15
  TRACK 135 AUDIO
    TITLE "0:"
    INDEX 01 03:00:40
  TRACK 136 AUDIO
    TITLE "23:cjc160_0668"
    INDEX 01 03:01:03
  TRACK 137 AUDIO
    TITLE "0:"
    INDEX 01 03:03:35
  TRACK 138 AUDIO
    TITLE "22:cjc160_0669"
    INDEX 01 03:04:34
  TRACK 139 AUDIO
    TITLE "0:"
    INDEX 01 03:05:45
  TRACK 140 AUDIO
    TITLE "23:cjc160_0670"
    INDEX 01 03:06:08
  TRACK 141 AUDIO
    TITLE "0:"
    INDEX 01 03:08:07
  TRACK 142 AUDIO
    TITLE "22:cjc160_0671"
    INDEX 01 03:09:04
  TRACK 143 AUDIO
    TITLE "0:"
    INDEX 01 03:10:35
  TRACK 144 AUDIO
    TITLE "23:cjc160_0672"
    INDEX 01 03:11:01
  TRACK 145 AUDIO
    TITLE "0:"
    INDEX 01 03:13:27
  TRACK 146 AUDIO
    TITLE "22:cjc160_0673"
    INDEX 01 03:14:29
  TRACK 147 AUDIO
    TITLE "0:"
    INDEX 01 03:16:28
  TRACK 148 AUDIO
    TITLE "23:cjc160_0674"
    INDEX 01 03:16:65
  TRACK 149 AUDIO
    TITLE "0:"
    INDEX 01 03:19:42
  TRACK 150 AUDIO
    TITLE "22:cjc160_0675"
    INDEX 01 03:20:43
  TRACK 151 AUDIO
    TITLE "0:"
    INDEX 01 03:22:56
  TRACK 152 AUDIO
    TITLE "23:cjc160_0676"
    INDEX 01 03:23:18
  TRACK 153 AUDIO
    TITLE "0:"
    INDEX 01 03:25:48
  TRACK 154 AUDIO
    TITLE "22:cjc160_0677"
    INDEX 01 03:26:50
  TRACK 155 AUDIO
    TITLE "0:"
    INDEX 01 03:28:11
  TRACK 156 AUDIO
    TITLE "23:cjc160_0678"
    INDEX 01 03:28:50
  TRACK 157 AUDIO
    TITLE "0:"
    INDEX 01 03:30:73
  TRACK 158 AUDIO
    TITLE "22:cjc160_0679"
    INDEX 01 03:31:72
  TRACK 159 AUDIO
    TITLE "0:"
    INDEX 01 03:33:22
  TRACK 160 AUDIO
    TITLE "23:cjc160_0680"
    INDEX 01 03:33:63
  TRACK 161 AUDIO
    TITLE "0:"
    INDEX 01 03:35:58
  TRACK 162 AUDIO
    TITLE "22:cjc160_0681"
    INDEX 01 03:36:60
  TRACK 163 AUDIO
    TITLE "0:"
    INDEX 01 03:38:04
  TRACK 164 AUDIO
    TITLE "23:cjc160_0682"
    INDEX 01 03:38:43
  TRACK 165 AUDIO
    TITLE "0:"
    INDEX 01 03:40:71
  TRACK 166 AUDIO
    TITLE "22:cjc160_0683"
    INDEX 01 03:41:75
  TRACK 167 AUDIO
    TITLE "0:"
    INDEX 01 03:43:36
  TRACK 168 AUDIO
    TITLE "23:cjc160_0684"
    INDEX 01 03:44:06
  TRACK 169 AUDIO
    TITLE "0:"
    INDEX 01 03:46:07
  TRACK 170 AUDIO
    TITLE "22:cjc160_0685"
    INDEX 01 03:47:09
  TRACK 171 AUDIO
    TITLE "0:"
    INDEX 01 03:48:37
  TRACK 172 AUDIO
    TITLE "23:cjc160_0686"
    INDEX 01 03:48:75
  TRACK 173 AUDIO
    TITLE "0:"
    INDEX 01 03:51:04
  TRACK 174 AUDIO
    TITLE "22:cjc160_0687"
    INDEX 01 03:52:06
  TRACK 175 AUDIO
    TITLE "0:"
    INDEX 01 03:53:31
  TRACK 176 AUDIO
    TITLE "23:cjc160_0688"
    INDEX 01 03:53:70
  TRACK 177 AUDIO
    TITLE "0:"
    INDEX 01 03:55:51
  TRACK 178 AUDIO
    TITLE "22:cjc160_0689"
    INDEX 01 03:56:53
  TRACK 179 AUDIO
    TITLE "0:"
    INDEX 01 03:58:03
  TRACK 180 AUDIO
    TITLE "23:cjc160_0690"
    INDEX 01 03:58:48
  TRACK 181 AUDIO
    TITLE "0:"
    INDEX 01 04:00:23
  TRACK 182 AUDIO
    TITLE "22:cjc160_0691"
    INDEX 01 04:01:24
  TRACK 183 AUDIO
    TITLE "0:"
    INDEX 01 04:02:53
  TRACK 184 AUDIO
    TITLE "23:cjc160_0692"
    INDEX 01 04:03:15
  TRACK 185 AUDIO
    TITLE "0:"
    INDEX 01 04:05:12
  TRACK 186 AUDIO
    TITLE "22:cjc160_0693"
    INDEX 01 04:06:12
  TRACK 187 AUDIO
    TITLE "0:"
    INDEX 01 04:07:33
  TRACK 188 AUDIO
    TITLE "23:cjc160_0694"
    INDEX 01 04:07:70
  TRACK 189 AUDIO
    TITLE "0:"
    INDEX 01 04:10:66
  TRACK 190 AUDIO
    TITLE "22:cjc160_0695"
    INDEX 01 04:11:70
  TRACK 191 AUDIO
    TITLE "0:"
    INDEX 01 04:13:71
  TRACK 192 AUDIO
    TITLE "23:cjc160_0696"
    INDEX 01 04:14:35
  TRACK 193 AUDIO
    TITLE "0:"
    INDEX 01 04:17:02
  TRACK 194 AUDIO
    TITLE "22:cjc160_0697"
    INDEX 01 04:18:03
  TRACK 195 AUDIO
    TITLE "0:"
    INDEX 01 04:20:37
  TRACK 196 AUDIO
    TITLE "23:cjc160_0698"
    INDEX 01 04:20:75
  TRACK 197 AUDIO
    TITLE "0:"
    INDEX 01 04:23:34
  TRACK 198 AUDIO
    TITLE "22:cjc160_0699"
    INDEX 01 04:24:35
  TRACK 199 AUDIO
    TITLE "0:"
    INDEX 01 04:26:58
  TRACK 200 AUDIO
    TITLE "23:cjc160_0700"
    INDEX 01 04:27:20
  TRACK 201 AUDIO
    TITLE "0:"
    INDEX 01 04:29:60
  TRACK 202 AUDIO
    TITLE "22:cjc160_0701"
    INDEX 01 04:30:61
  TRACK 203 AUDIO
    TITLE "0:"
    INDEX 01 04:32:03
  TRACK 204 AUDIO
    TITLE "23:cjc160_0702"
    INDEX 01 04:32:41
  TRACK 205 AUDIO
    TITLE "0:"
    INDEX 01 04:34:65
  TRACK 206 AUDIO
    TITLE "22:cjc160_0703"
    INDEX 01 04:35:66
  TRACK 207 AUDIO
    TITLE "0:"
    INDEX 01 04:37:54
  TRACK 208 AUDIO
    TITLE "23:cjc160_0704"
    INDEX 01 04:38:18
  TRACK 209 AUDIO
    TITLE "0:"
    INDEX 01 04:41:14
  TRACK 210 AUDIO
    TITLE "22:cjc160_0705"
    INDEX 01 04:42:16
  TRACK 211 AUDIO
    TITLE "0:"
    INDEX 01 04:44:34
  TRACK 212 AUDIO
    TITLE "23:cjc160_0706"
    INDEX 01 04:44:69
  TRACK 213 AUDIO
    TITLE "0:"
    INDEX 01 04:47:17
  TRACK 214 AUDIO
    TITLE "22:cjc160_0707"
    INDEX 01 04:48:18
  TRACK 215 AUDIO
    TITLE "0:"
    INDEX 01 04:50:52
  TRACK 216 AUDIO
    TITLE "23:cjc160_0708"
    INDEX 01 04:51:13
  TRACK 217 AUDIO
    TITLE "0:"
    INDEX 01 04:53:33
  TRACK 218 AUDIO
    TITLE "22:cjc160_0709"
    INDEX 01 04:54:32
  TRACK 219 AUDIO
    TITLE "0:"
    INDEX 01 04:56:57
  TRACK 220 AUDIO
    TITLE "23:cjc160_0710"
    INDEX 01 04:57:17
  TRACK 221 AUDIO
    TITLE "0:"
    INDEX 01 05:00:64
